<svg width="260" height="26" viewBox="0 0 260 26" fill="none" xmlns="http://www.w3.org/2000/svg">
<path d="M0.335938 25.1055C0.265625 25.0352 0.230469 24.8594 0.230469 24.5781C0.230469 24.25 0.265625 24.0859 0.335938 24.0859C0.546875 24.0859 0.828125 24.0508 1.17969 23.9805C1.53125 23.8867 1.85938 23.7812 2.16406 23.6641C2.49219 23.5469 2.69141 23.418 2.76172 23.2773C2.92578 23.0195 3.00781 21.918 3.00781 19.9727V6.68359C3.00781 6.00391 2.98438 5.40625 2.9375 4.89062C2.91406 4.375 2.85547 3.96484 2.76172 3.66016C2.71484 3.51953 2.52734 3.39063 2.19922 3.27344C1.89453 3.15625 1.55469 3.0625 1.17969 2.99219C0.828125 2.92188 0.546875 2.88672 0.335938 2.88672C0.242188 2.88672 0.195312 2.74609 0.195312 2.46484C0.195312 2.16016 0.242188 1.96094 0.335938 1.86719C0.945312 1.89062 1.58984 1.91406 2.26953 1.9375C2.97266 1.9375 3.72266 1.9375 4.51953 1.9375L7.92969 1.90234C8.60938 1.90234 9.17188 1.90234 9.61719 1.90234C10.0625 1.87891 10.4023 1.86719 10.6367 1.86719C13.1914 1.86719 15.3711 2.39453 17.1758 3.44922C18.9805 4.48047 20.3633 5.85156 21.3242 7.5625C22.2852 9.27344 22.7656 11.1484 22.7656 13.1875C22.7656 15.4375 22.2734 17.4766 21.2891 19.3047C20.3281 21.1328 18.9336 22.5742 17.1055 23.6289C15.3008 24.6836 13.1328 25.1758 10.6016 25.1055L8.10547 25.0352C7.40234 25.0117 6.75781 25 6.17188 25C5.58594 24.9766 5.05859 24.9766 4.58984 25L0.335938 25.1055ZM11.1641 23.4883C16.5547 23.4883 19.25 20.0078 19.25 13.0469C19.25 11.2656 18.9336 9.64844 18.3008 8.19531C17.668 6.74219 16.7305 5.58203 15.4883 4.71484C14.2695 3.84766 12.7461 3.41406 10.918 3.41406H10.7422C8.21094 3.41406 6.80469 3.60156 6.52344 3.97656C6.21875 4.375 6.06641 5.11328 6.06641 6.19141V20.1133C6.06641 21.0742 6.24219 21.9648 6.59375 22.7852C6.64062 22.9023 6.83984 23.0078 7.19141 23.1016C7.54297 23.1719 7.96484 23.2422 8.45703 23.3125C8.97266 23.3594 9.47656 23.4062 9.96875 23.4531C10.4609 23.4766 10.8594 23.4883 11.1641 23.4883ZM32.7852 25.2109C31.4961 25.2109 30.3125 24.8711 29.2344 24.1914C28.1562 23.5117 27.2891 22.6094 26.6328 21.4844C26 20.3359 25.6836 19.0586 25.6836 17.6523C25.6836 16.0117 25.9883 14.5938 26.5977 13.3984C27.207 12.2031 28.0391 11.2891 29.0938 10.6562C30.1484 10 31.332 9.67188 32.6445 9.67188C33.7227 9.67188 34.6719 9.88281 35.4922 10.3047C36.3125 10.7031 36.9453 11.2188 37.3906 11.8516C37.8125 12.5078 38.1172 13.1758 38.3047 13.8555C38.5156 14.5117 38.6211 15.168 38.6211 15.8242C38.6211 16.293 38.5508 16.5859 38.4102 16.7031C38.2695 16.7969 38 16.8438 37.6016 16.8438H28.7422C28.5547 16.8438 28.4609 16.9023 28.4609 17.0195C28.4609 18.0039 28.6602 18.9531 29.0586 19.8672C29.457 20.7578 30.043 21.4961 30.8164 22.082C31.5898 22.668 32.5391 22.9609 33.6641 22.9609C34.6484 22.9609 35.4688 22.8203 36.125 22.5391C36.8047 22.2344 37.2969 21.9648 37.6016 21.7305L37.8477 21.5547C37.9883 21.5547 38.0586 21.707 38.0586 22.0117C38.0586 22.1758 37.9883 22.3867 37.8477 22.6445C37.3789 23.3008 36.6875 23.8984 35.7734 24.4375C34.8594 24.9531 33.8633 25.2109 32.7852 25.2109ZM28.7422 15.3672H35.5977C35.7148 15.3672 35.7734 15.25 35.7734 15.0156C35.7734 14.5 35.6328 13.9375 35.3516 13.3281C35.0938 12.6953 34.6953 12.1445 34.1562 11.6758C33.6172 11.207 32.9375 10.9727 32.1172 10.9727C31.3672 10.9727 30.7227 11.2305 30.1836 11.7461C29.6445 12.2383 29.2344 12.8125 28.9531 13.4688C28.6719 14.1016 28.5312 14.6523 28.5312 15.1211C28.5312 15.2852 28.6016 15.3672 28.7422 15.3672ZM40.6602 25.1055C40.5664 25.0117 40.5195 24.8125 40.5195 24.5078C40.5195 24.2266 40.5664 24.0859 40.6602 24.0859C40.8477 24.0859 41.1055 24.0508 41.4336 23.9805C41.7617 23.9102 42.0664 23.8164 42.3477 23.6992C42.6289 23.582 42.7812 23.4766 42.8047 23.3828C42.8984 23.0547 42.957 22.6797 42.9805 22.2578C43.0273 21.8359 43.0508 21.3906 43.0508 20.9219V14.2773C43.0508 13.3867 42.8867 12.7539 42.5586 12.3789C42.3242 12.0977 42.043 11.9102 41.7148 11.8164C41.4102 11.7227 41.1289 11.6758 40.8711 11.6758C40.6367 11.6523 40.5195 11.6172 40.5195 11.5703C40.5195 11.0078 40.5898 10.7148 40.7305 10.6914C41.9727 10.5039 42.9805 10.3398 43.7539 10.1992C44.5273 10.0352 45.0078 9.92969 45.1953 9.88281L45.7578 9.74219C45.8516 9.71875 45.9102 9.8125 45.9336 10.0234C45.957 10.2344 45.957 10.3867 45.9336 10.4805C45.8867 10.8086 45.8516 11.0898 45.8281 11.3242C45.8047 11.5586 45.793 11.7461 45.793 11.8867C45.793 11.9805 45.8164 12.0273 45.8633 12.0273C45.8867 12.0273 45.9219 12.0039 45.9688 11.957C46.5078 11.3945 47.2344 10.8672 48.1484 10.375C49.0859 9.85938 49.9766 9.60156 50.8203 9.60156C52.4609 9.60156 53.6094 10.1875 54.2656 11.3594C54.9219 12.5312 55.25 14.4297 55.25 17.0547V20.2539C55.25 20.9336 55.2734 21.5312 55.3203 22.0469C55.3672 22.5625 55.4375 23.0078 55.5312 23.3828C55.5781 23.4766 55.7422 23.582 56.0234 23.6992C56.3047 23.8164 56.6094 23.9102 56.9375 23.9805C57.2656 24.0508 57.5 24.0859 57.6406 24.0859C57.7109 24.0859 57.7578 24.2266 57.7812 24.5078C57.8047 24.7891 57.793 24.9883 57.7461 25.1055L53.9844 24.9297L50.293 25.1055C50.1992 25.0117 50.1523 24.8125 50.1523 24.5078C50.1523 24.2266 50.1992 24.0859 50.293 24.0859C50.4805 24.0859 50.7266 24.0508 51.0312 23.9805C51.3359 23.9102 51.6172 23.8164 51.875 23.6992C52.1328 23.582 52.2734 23.4766 52.2969 23.3828C52.3906 23.0547 52.4492 22.6797 52.4727 22.2578C52.5195 21.8359 52.543 21.3906 52.543 20.9219V17.4062C52.543 15.2266 52.2617 13.7383 51.6992 12.9414C51.1367 12.1445 50.2227 11.7461 48.957 11.7461C48.4648 11.7461 47.9727 11.8867 47.4805 12.168C46.9883 12.4258 46.5781 12.7305 46.25 13.082C45.9219 13.4336 45.7578 13.7617 45.7578 14.0664V20.2539C45.7578 20.9336 45.7812 21.5312 45.8281 22.0469C45.875 22.5625 45.9453 23.0078 46.0391 23.3828C46.0859 23.4766 46.25 23.582 46.5312 23.6992C46.8125 23.8164 47.1172 23.9102 47.4453 23.9805C47.7734 24.0508 48.0078 24.0859 48.1484 24.0859C48.2188 24.0859 48.2656 24.2266 48.2891 24.5078C48.3125 24.7891 48.3008 24.9883 48.2539 25.1055L44.4922 24.9297L40.6602 25.1055ZM70.8594 25.2109C70.7188 25.2109 70.6484 25.0117 70.6484 24.6133V24.1914C70.6484 24.0742 70.6016 24.0273 70.5078 24.0508C69.2188 24.7773 67.9766 25.1406 66.7812 25.1406C65.4922 25.1406 64.3203 24.8242 63.2656 24.1914C62.2344 23.5352 61.4141 22.6797 60.8047 21.625C60.2188 20.5469 59.9258 19.375 59.9258 18.1094C59.9258 16.9844 60.1367 15.9062 60.5586 14.875C61.0039 13.8438 61.5898 12.9297 62.3164 12.1328C63.0664 11.3125 63.9102 10.6797 64.8477 10.2344C65.7852 9.76562 66.7578 9.53125 67.7656 9.53125C68.7734 9.53125 69.6523 9.73047 70.4023 10.1289C70.5664 10.1289 70.6484 9.91797 70.6484 9.49609V5.69922C70.6484 4.90234 70.5781 4.15234 70.4375 3.44922C70.3438 3.07422 69.7461 2.88672 68.6445 2.88672H68.3281C68.1875 2.88672 68.1172 2.75781 68.1172 2.5C68.1172 2.125 68.1875 1.9375 68.3281 1.9375C69.6406 1.82031 70.6719 1.64453 71.4219 1.41016C72.1953 1.17578 72.7461 0.941406 73.0742 0.707031L73.2148 0.601562H73.2852C73.3789 0.601562 73.4727 0.671875 73.5664 0.8125C73.6602 0.929688 73.7188 1.04687 73.7422 1.16406C73.4844 1.9375 73.3555 2.95703 73.3555 4.22266V20.043C73.3555 21.1445 73.4258 22.0352 73.5664 22.7148C73.6367 22.9492 73.8359 23.1016 74.1641 23.1719C74.5156 23.2188 74.8789 23.2656 75.2539 23.3125L75.5703 23.3477C75.6406 23.3711 75.6758 23.5117 75.6758 23.7695C75.6758 24.1211 75.6055 24.2969 75.4648 24.2969C74.6914 24.3438 73.8945 24.4727 73.0742 24.6836C72.2539 24.8711 71.6211 25.0234 71.1758 25.1406L70.8594 25.2109ZM68.1172 23.418C68.9141 23.418 69.5352 23.2422 69.9805 22.8906C70.4258 22.5156 70.6484 22.0234 70.6484 21.4141V13.0469C70.6484 12.5547 70.3789 12.0977 69.8398 11.6758C69.3242 11.2305 68.4805 11.0078 67.3086 11.0078C66.418 11.0078 65.6445 11.2891 64.9883 11.8516C64.332 12.4141 63.8281 13.1641 63.4766 14.1016C63.125 15.0156 62.9492 16.0117 62.9492 17.0898C62.9492 18.2148 63.1484 19.2578 63.5469 20.2188C63.9688 21.1797 64.5664 21.9531 65.3398 22.5391C66.1133 23.125 67.0391 23.418 68.1172 23.418ZM77.3633 25.1055C77.2695 25.0117 77.2227 24.8125 77.2227 24.5078C77.2227 24.2266 77.2695 24.0859 77.3633 24.0859C77.5508 24.0859 77.8086 24.0508 78.1367 23.9805C78.4648 23.9102 78.7695 23.8164 79.0508 23.6992C79.332 23.582 79.4844 23.4766 79.5078 23.3828C79.6016 23.0547 79.6602 22.6797 79.6836 22.2578C79.7305 21.8359 79.7539 21.3906 79.7539 20.9219V14.2773C79.7539 13.3867 79.5898 12.7539 79.2617 12.3789C79.0273 12.0977 78.7461 11.9102 78.418 11.8164C78.1133 11.7227 77.832 11.6758 77.5742 11.6758C77.3398 11.6523 77.2227 11.6172 77.2227 11.5703C77.2227 11.0078 77.293 10.7148 77.4336 10.6914C79.9883 10.293 81.4648 10.0352 81.8633 9.91797L82.4609 9.74219C82.5547 9.71875 82.6133 9.8125 82.6367 10.0234C82.6602 10.2344 82.6602 10.3867 82.6367 10.4805L82.4258 12.2383C82.8477 11.6055 83.4219 11.0195 84.1484 10.4805C84.8984 9.91797 85.6367 9.63672 86.3633 9.63672C87.7227 9.63672 88.6367 9.97656 89.1055 10.6562C89.1055 11.4766 88.9766 12.0742 88.7188 12.4492C88.4609 12.8242 88.1445 13.0117 87.7695 13.0117C87.3477 13.0117 86.9609 12.8125 86.6094 12.4141C86.2578 12.0156 85.7773 11.8164 85.168 11.8164C84.6992 11.8164 84.2539 11.9805 83.832 12.3086C83.4102 12.6133 83.0703 13.0117 82.8125 13.5039C82.5781 13.9727 82.4609 14.4648 82.4609 14.9805V20.2539C82.4609 20.9336 82.4844 21.5312 82.5312 22.0469C82.5781 22.5625 82.6484 23.0078 82.7422 23.3828C82.7891 23.4766 82.9531 23.582 83.2344 23.6992C83.5156 23.8164 83.8203 23.9102 84.1484 23.9805C84.5 24.0508 84.7461 24.0859 84.8867 24.0859C84.957 24.0859 85.0039 24.2266 85.0273 24.5078C85.0508 24.7891 85.0391 24.9883 84.9922 25.1055L81.1953 24.9297L77.3633 25.1055ZM98.4219 25.2461C97.0156 25.2461 95.7266 24.8945 94.5547 24.1914C93.3828 23.4883 92.4453 22.5391 91.7422 21.3438C91.0625 20.1484 90.7227 18.8359 90.7227 17.4062C90.7227 15.9531 91.0508 14.6406 91.707 13.4688C92.3867 12.2969 93.3008 11.3711 94.4492 10.6914C95.5977 9.98828 96.8984 9.63672 98.3516 9.63672C99.7578 9.63672 101.035 9.98828 102.184 10.6914C103.355 11.3945 104.281 12.332 104.961 13.5039C105.664 14.6758 106.016 15.9766 106.016 17.4062C106.016 18.8359 105.676 20.1484 104.996 21.3438C104.316 22.5391 103.402 23.4883 102.254 24.1914C101.129 24.8945 99.8516 25.2461 98.4219 25.2461ZM98.7383 23.875C99.582 23.875 100.32 23.6055 100.953 23.0664C101.586 22.5273 102.078 21.8008 102.43 20.8867C102.805 19.9727 102.992 18.9766 102.992 17.8984C102.992 16.6328 102.758 15.4844 102.289 14.4531C101.82 13.3984 101.199 12.5664 100.426 11.957C99.6758 11.3242 98.8555 11.0078 97.9648 11.0078C97.1445 11.0078 96.4062 11.2773 95.75 11.8164C95.1172 12.332 94.625 13.0352 94.2734 13.9258C93.9219 14.793 93.7461 15.7773 93.7461 16.8789C93.7461 18.1445 93.9688 19.3164 94.4141 20.3945C94.8828 21.4492 95.4922 22.293 96.2422 22.9258C97.0156 23.5586 97.8477 23.875 98.7383 23.875ZM108.512 25.1055C108.418 25.0117 108.371 24.8125 108.371 24.5078C108.371 24.2266 108.418 24.0859 108.512 24.0859C108.699 24.0859 108.957 24.0508 109.285 23.9805C109.613 23.9102 109.918 23.8164 110.199 23.6992C110.48 23.582 110.633 23.4766 110.656 23.3828C110.75 23.0547 110.809 22.6797 110.832 22.2578C110.879 21.8359 110.902 21.3906 110.902 20.9219V14.2773C110.902 13.3867 110.738 12.7539 110.41 12.3789C110.176 12.0977 109.895 11.9102 109.566 11.8164C109.262 11.7227 108.98 11.6758 108.723 11.6758C108.488 11.6523 108.371 11.6172 108.371 11.5703C108.371 11.0078 108.441 10.7148 108.582 10.6914C109.824 10.5039 110.832 10.3398 111.605 10.1992C112.379 10.0352 112.859 9.92969 113.047 9.88281L113.609 9.74219C113.703 9.71875 113.762 9.8125 113.785 10.0234C113.809 10.2344 113.809 10.3867 113.785 10.4805C113.738 10.8086 113.703 11.0898 113.68 11.3242C113.656 11.5586 113.645 11.7461 113.645 11.8867C113.645 11.9805 113.668 12.0273 113.715 12.0273C113.738 12.0273 113.773 12.0039 113.82 11.957C114.359 11.3945 115.086 10.8672 116 10.375C116.938 9.85938 117.828 9.60156 118.672 9.60156C120.312 9.60156 121.461 10.1875 122.117 11.3594C122.773 12.5312 123.102 14.4297 123.102 17.0547V20.2539C123.102 20.9336 123.125 21.5312 123.172 22.0469C123.219 22.5625 123.289 23.0078 123.383 23.3828C123.43 23.4766 123.594 23.582 123.875 23.6992C124.156 23.8164 124.461 23.9102 124.789 23.9805C125.117 24.0508 125.352 24.0859 125.492 24.0859C125.562 24.0859 125.609 24.2266 125.633 24.5078C125.656 24.7891 125.645 24.9883 125.598 25.1055L121.836 24.9297L118.145 25.1055C118.051 25.0117 118.004 24.8125 118.004 24.5078C118.004 24.2266 118.051 24.0859 118.145 24.0859C118.332 24.0859 118.578 24.0508 118.883 23.9805C119.188 23.9102 119.469 23.8164 119.727 23.6992C119.984 23.582 120.125 23.4766 120.148 23.3828C120.242 23.0547 120.301 22.6797 120.324 22.2578C120.371 21.8359 120.395 21.3906 120.395 20.9219V17.4062C120.395 15.2266 120.113 13.7383 119.551 12.9414C118.988 12.1445 118.074 11.7461 116.809 11.7461C116.316 11.7461 115.824 11.8867 115.332 12.168C114.84 12.4258 114.43 12.7305 114.102 13.082C113.773 13.4336 113.609 13.7617 113.609 14.0664V20.2539C113.609 20.9336 113.633 21.5312 113.68 22.0469C113.727 22.5625 113.797 23.0078 113.891 23.3828C113.938 23.4766 114.102 23.582 114.383 23.6992C114.664 23.8164 114.969 23.9102 115.297 23.9805C115.625 24.0508 115.859 24.0859 116 24.0859C116.07 24.0859 116.117 24.2266 116.141 24.5078C116.164 24.7891 116.152 24.9883 116.105 25.1055L112.344 24.9297L108.512 25.1055ZM146.621 25.3164C146.457 25.3164 146.34 25.2461 146.27 25.1055L139.062 6.92969C138.477 5.38281 137.949 4.25781 137.48 3.55469C137.316 3.29687 136.977 3.09766 136.461 2.95703C135.945 2.81641 135.535 2.74609 135.23 2.74609C135.137 2.74609 135.09 2.59375 135.09 2.28906C135.09 2.00781 135.137 1.82031 135.23 1.72656C135.793 1.75 136.426 1.78516 137.129 1.83203C137.832 1.87891 138.547 1.90234 139.273 1.90234C139.555 1.90234 140.059 1.89062 140.785 1.86719C141.512 1.82031 142.461 1.77344 143.633 1.72656C143.68 1.82031 143.691 2.01953 143.668 2.32422C143.668 2.60547 143.633 2.74609 143.562 2.74609C143.117 2.74609 142.66 2.83984 142.191 3.02734C141.723 3.21484 141.488 3.50781 141.488 3.90625C141.488 4.58594 142.965 8.53516 145.918 15.7539C146.246 16.5508 146.527 17.2656 146.762 17.8984C147.02 18.5078 147.242 19.0352 147.43 19.4805C147.5 19.5977 147.594 19.6328 147.711 19.5859C147.852 19.5156 147.945 19.4219 147.992 19.3047L153.266 6.57812C153.711 5.45312 153.934 4.63281 153.934 4.11719C153.934 3.76562 153.781 3.49609 153.477 3.30859C153.172 3.09766 152.82 2.95703 152.422 2.88672C152.047 2.79297 151.73 2.74609 151.473 2.74609C151.379 2.74609 151.332 2.59375 151.332 2.28906C151.332 2.00781 151.379 1.82031 151.473 1.72656C152.574 1.77344 153.43 1.82031 154.039 1.86719C154.672 1.89062 155.07 1.90234 155.234 1.90234L158.785 1.72656C158.832 1.91406 158.855 2.08984 158.855 2.25391C158.855 2.58203 158.809 2.74609 158.715 2.74609C157.66 2.74609 156.957 3.07422 156.605 3.73047C156.348 4.22266 156.066 4.77344 155.762 5.38281C155.48 5.96875 155.188 6.625 154.883 7.35156L147.852 24.1562C147.547 24.9297 147.137 25.3164 146.621 25.3164ZM163.953 25.2109C162.664 25.2109 161.48 24.8711 160.402 24.1914C159.324 23.5117 158.457 22.6094 157.801 21.4844C157.168 20.3359 156.852 19.0586 156.852 17.6523C156.852 16.0117 157.156 14.5938 157.766 13.3984C158.375 12.2031 159.207 11.2891 160.262 10.6562C161.316 10 162.5 9.67188 163.812 9.67188C164.891 9.67188 165.84 9.88281 166.66 10.3047C167.48 10.7031 168.113 11.2188 168.559 11.8516C168.98 12.5078 169.285 13.1758 169.473 13.8555C169.684 14.5117 169.789 15.168 169.789 15.8242C169.789 16.293 169.719 16.5859 169.578 16.7031C169.438 16.7969 169.168 16.8438 168.77 16.8438H159.91C159.723 16.8438 159.629 16.9023 159.629 17.0195C159.629 18.0039 159.828 18.9531 160.227 19.8672C160.625 20.7578 161.211 21.4961 161.984 22.082C162.758 22.668 163.707 22.9609 164.832 22.9609C165.816 22.9609 166.637 22.8203 167.293 22.5391C167.973 22.2344 168.465 21.9648 168.77 21.7305L169.016 21.5547C169.156 21.5547 169.227 21.707 169.227 22.0117C169.227 22.1758 169.156 22.3867 169.016 22.6445C168.547 23.3008 167.855 23.8984 166.941 24.4375C166.027 24.9531 165.031 25.2109 163.953 25.2109ZM159.91 15.3672H166.766C166.883 15.3672 166.941 15.25 166.941 15.0156C166.941 14.5 166.801 13.9375 166.52 13.3281C166.262 12.6953 165.863 12.1445 165.324 11.6758C164.785 11.207 164.105 10.9727 163.285 10.9727C162.535 10.9727 161.891 11.2305 161.352 11.7461C160.812 12.2383 160.402 12.8125 160.121 13.4688C159.84 14.1016 159.699 14.6523 159.699 15.1211C159.699 15.2852 159.77 15.3672 159.91 15.3672ZM171.828 25.1055C171.734 25.0117 171.688 24.8125 171.688 24.5078C171.688 24.2266 171.734 24.0859 171.828 24.0859C172.016 24.0859 172.273 24.0508 172.602 23.9805C172.93 23.9102 173.234 23.8164 173.516 23.6992C173.797 23.582 173.949 23.4766 173.973 23.3828C174.066 23.0547 174.125 22.6797 174.148 22.2578C174.195 21.8359 174.219 21.3906 174.219 20.9219V14.2773C174.219 13.3867 174.055 12.7539 173.727 12.3789C173.492 12.0977 173.211 11.9102 172.883 11.8164C172.578 11.7227 172.297 11.6758 172.039 11.6758C171.805 11.6523 171.688 11.6172 171.688 11.5703C171.688 11.0078 171.758 10.7148 171.898 10.6914C173.141 10.5039 174.148 10.3398 174.922 10.1992C175.695 10.0352 176.176 9.92969 176.363 9.88281L176.926 9.74219C177.02 9.71875 177.078 9.8125 177.102 10.0234C177.125 10.2344 177.125 10.3867 177.102 10.4805C177.055 10.8086 177.02 11.0898 176.996 11.3242C176.973 11.5586 176.961 11.7461 176.961 11.8867C176.961 11.9805 176.984 12.0273 177.031 12.0273C177.055 12.0273 177.09 12.0039 177.137 11.957C177.676 11.3945 178.402 10.8672 179.316 10.375C180.254 9.85938 181.145 9.60156 181.988 9.60156C183.629 9.60156 184.777 10.1875 185.434 11.3594C186.09 12.5312 186.418 14.4297 186.418 17.0547V20.2539C186.418 20.9336 186.441 21.5312 186.488 22.0469C186.535 22.5625 186.605 23.0078 186.699 23.3828C186.746 23.4766 186.91 23.582 187.191 23.6992C187.473 23.8164 187.777 23.9102 188.105 23.9805C188.434 24.0508 188.668 24.0859 188.809 24.0859C188.879 24.0859 188.926 24.2266 188.949 24.5078C188.973 24.7891 188.961 24.9883 188.914 25.1055L185.152 24.9297L181.461 25.1055C181.367 25.0117 181.32 24.8125 181.32 24.5078C181.32 24.2266 181.367 24.0859 181.461 24.0859C181.648 24.0859 181.895 24.0508 182.199 23.9805C182.504 23.9102 182.785 23.8164 183.043 23.6992C183.301 23.582 183.441 23.4766 183.465 23.3828C183.559 23.0547 183.617 22.6797 183.641 22.2578C183.688 21.8359 183.711 21.3906 183.711 20.9219V17.4062C183.711 15.2266 183.43 13.7383 182.867 12.9414C182.305 12.1445 181.391 11.7461 180.125 11.7461C179.633 11.7461 179.141 11.8867 178.648 12.168C178.156 12.4258 177.746 12.7305 177.418 13.082C177.09 13.4336 176.926 13.7617 176.926 14.0664V20.2539C176.926 20.9336 176.949 21.5312 176.996 22.0469C177.043 22.5625 177.113 23.0078 177.207 23.3828C177.254 23.4766 177.418 23.582 177.699 23.6992C177.98 23.8164 178.285 23.9102 178.613 23.9805C178.941 24.0508 179.176 24.0859 179.316 24.0859C179.387 24.0859 179.434 24.2266 179.457 24.5078C179.48 24.7891 179.469 24.9883 179.422 25.1055L175.66 24.9297L171.828 25.1055ZM196.684 25.2461C195.512 25.2461 194.527 24.8594 193.73 24.0859C192.957 23.3125 192.57 22.2109 192.57 20.7812V11.8516H190.531C190.414 11.8516 190.355 11.6055 190.355 11.1133C190.355 10.9727 190.367 10.8906 190.391 10.8672C191.094 10.5391 191.832 9.91797 192.605 9.00391C193.145 8.37109 193.543 7.82031 193.801 7.35156C194.082 6.88281 194.223 6.60156 194.223 6.50781C194.926 6.50781 195.277 6.56641 195.277 6.68359V10.1641L198.055 10.1992H200.023C200.211 10.1992 200.305 10.3047 200.305 10.5156C200.305 10.9609 200.188 11.4062 199.953 11.8516H195.277V20.4648C195.277 21.4023 195.512 22.1523 195.98 22.7148C196.473 23.2773 197.105 23.5586 197.879 23.5586C198.605 23.5586 199.332 23.3359 200.059 22.8906C200.129 22.8438 200.234 22.9492 200.375 23.207C200.516 23.4414 200.574 23.5703 200.551 23.5938C200.199 23.9688 199.66 24.3438 198.934 24.7188C198.207 25.0703 197.457 25.2461 196.684 25.2461ZM213.699 25.2812C213.512 25.2812 213.418 25.0938 213.418 24.7188V22.9258C213.418 22.8086 213.395 22.75 213.348 22.75C211.801 24.4141 210.266 25.2461 208.742 25.2461C207.641 25.2461 206.762 24.9297 206.105 24.2969C205.473 23.6406 205.016 22.8203 204.734 21.8359C204.477 20.8281 204.348 19.7852 204.348 18.707V14.2773C204.348 13.3867 204.184 12.7539 203.855 12.3789C203.621 12.0977 203.34 11.9102 203.012 11.8164C202.707 11.7227 202.426 11.6758 202.168 11.6758C201.934 11.6523 201.816 11.6172 201.816 11.5703C201.816 11.0078 201.887 10.7148 202.027 10.6914C203.27 10.5039 204.266 10.3398 205.016 10.1992C205.789 10.0352 206.234 9.94141 206.352 9.91797L207.055 9.74219C207.148 9.71875 207.207 9.8125 207.23 10.0234C207.254 10.2344 207.254 10.3867 207.23 10.4805C207.09 11.6055 207.02 12.4727 207.02 13.082V17.8281C207.02 19.6328 207.289 20.9688 207.828 21.8359C208.367 22.6797 209.246 23.1016 210.465 23.1016C210.934 23.1016 211.391 22.9727 211.836 22.7148C212.305 22.457 212.68 22.1523 212.961 21.8008C213.266 21.4258 213.418 21.1094 213.418 20.8516V14.2773C213.418 13.3867 213.254 12.7539 212.926 12.3789C212.691 12.0977 212.41 11.9102 212.082 11.8164C211.777 11.7227 211.496 11.6641 211.238 11.6406C211.004 11.6172 210.887 11.5938 210.887 11.5703C210.887 11.0078 210.957 10.7148 211.098 10.6914C212.34 10.5039 213.266 10.3516 213.875 10.2344C214.508 10.1172 215.012 10.0117 215.387 9.91797L216.125 9.74219C216.219 9.71875 216.277 9.8125 216.301 10.0234C216.324 10.2344 216.324 10.3867 216.301 10.4805C216.16 11.6055 216.09 12.4492 216.09 13.0117V20.043C216.09 21.0977 216.172 21.9883 216.336 22.7148C216.406 22.9492 216.594 23.1016 216.898 23.1719C217.203 23.2188 217.555 23.2656 217.953 23.3125L218.41 23.3477C218.48 23.3711 218.516 23.5 218.516 23.7344C218.516 23.8047 218.48 23.9219 218.41 24.0859C218.363 24.2266 218.305 24.2969 218.234 24.2969C217.531 24.3438 216.758 24.4727 215.914 24.6836C215.07 24.8711 214.438 25.0469 214.016 25.2109L213.699 25.2812ZM220.273 25.1055C220.18 25.0117 220.133 24.8125 220.133 24.5078C220.133 24.2266 220.18 24.0859 220.273 24.0859C220.461 24.0859 220.719 24.0508 221.047 23.9805C221.375 23.9102 221.68 23.8164 221.961 23.6992C222.242 23.582 222.395 23.4766 222.418 23.3828C222.512 23.0547 222.57 22.6797 222.594 22.2578C222.641 21.8359 222.664 21.3906 222.664 20.9219V14.2773C222.664 13.3867 222.5 12.7539 222.172 12.3789C221.938 12.0977 221.656 11.9102 221.328 11.8164C221.023 11.7227 220.742 11.6758 220.484 11.6758C220.25 11.6523 220.133 11.6172 220.133 11.5703C220.133 11.0078 220.203 10.7148 220.344 10.6914C222.898 10.293 224.375 10.0352 224.773 9.91797L225.371 9.74219C225.465 9.71875 225.523 9.8125 225.547 10.0234C225.57 10.2344 225.57 10.3867 225.547 10.4805L225.336 12.2383C225.758 11.6055 226.332 11.0195 227.059 10.4805C227.809 9.91797 228.547 9.63672 229.273 9.63672C230.633 9.63672 231.547 9.97656 232.016 10.6562C232.016 11.4766 231.887 12.0742 231.629 12.4492C231.371 12.8242 231.055 13.0117 230.68 13.0117C230.258 13.0117 229.871 12.8125 229.52 12.4141C229.168 12.0156 228.688 11.8164 228.078 11.8164C227.609 11.8164 227.164 11.9805 226.742 12.3086C226.32 12.6133 225.98 13.0117 225.723 13.5039C225.488 13.9727 225.371 14.4648 225.371 14.9805V20.2539C225.371 20.9336 225.395 21.5312 225.441 22.0469C225.488 22.5625 225.559 23.0078 225.652 23.3828C225.699 23.4766 225.863 23.582 226.145 23.6992C226.426 23.8164 226.73 23.9102 227.059 23.9805C227.41 24.0508 227.656 24.0859 227.797 24.0859C227.867 24.0859 227.914 24.2266 227.938 24.5078C227.961 24.7891 227.949 24.9883 227.902 25.1055L224.105 24.9297L220.273 25.1055ZM240.734 25.2109C239.445 25.2109 238.262 24.8711 237.184 24.1914C236.105 23.5117 235.238 22.6094 234.582 21.4844C233.949 20.3359 233.633 19.0586 233.633 17.6523C233.633 16.0117 233.938 14.5938 234.547 13.3984C235.156 12.2031 235.988 11.2891 237.043 10.6562C238.098 10 239.281 9.67188 240.594 9.67188C241.672 9.67188 242.621 9.88281 243.441 10.3047C244.262 10.7031 244.895 11.2188 245.34 11.8516C245.762 12.5078 246.066 13.1758 246.254 13.8555C246.465 14.5117 246.57 15.168 246.57 15.8242C246.57 16.293 246.5 16.5859 246.359 16.7031C246.219 16.7969 245.949 16.8438 245.551 16.8438H236.691C236.504 16.8438 236.41 16.9023 236.41 17.0195C236.41 18.0039 236.609 18.9531 237.008 19.8672C237.406 20.7578 237.992 21.4961 238.766 22.082C239.539 22.668 240.488 22.9609 241.613 22.9609C242.598 22.9609 243.418 22.8203 244.074 22.5391C244.754 22.2344 245.246 21.9648 245.551 21.7305L245.797 21.5547C245.938 21.5547 246.008 21.707 246.008 22.0117C246.008 22.1758 245.938 22.3867 245.797 22.6445C245.328 23.3008 244.637 23.8984 243.723 24.4375C242.809 24.9531 241.812 25.2109 240.734 25.2109ZM236.691 15.3672H243.547C243.664 15.3672 243.723 15.25 243.723 15.0156C243.723 14.5 243.582 13.9375 243.301 13.3281C243.043 12.6953 242.645 12.1445 242.105 11.6758C241.566 11.207 240.887 10.9727 240.066 10.9727C239.316 10.9727 238.672 11.2305 238.133 11.7461C237.594 12.2383 237.184 12.8125 236.902 13.4688C236.621 14.1016 236.48 14.6523 236.48 15.1211C236.48 15.2852 236.551 15.3672 236.691 15.3672ZM253.602 25.3867C252.875 25.3867 252.219 25.3047 251.633 25.1406C251.047 24.9766 250.332 24.8359 249.488 24.7188C249.395 24.4609 249.301 24.1094 249.207 23.6641C249.113 23.2188 249.031 22.75 248.961 22.2578C248.914 21.7656 248.891 21.3672 248.891 21.0625C249.078 20.9219 249.219 20.8516 249.312 20.8516C249.664 20.8516 249.852 20.9219 249.875 21.0625C249.969 21.5312 250.203 22 250.578 22.4688C250.953 22.9375 251.41 23.3359 251.949 23.6641C252.488 23.9688 253.039 24.1211 253.602 24.1211C254.352 24.1211 254.961 23.9219 255.43 23.5234C255.922 23.1016 256.168 22.5039 256.168 21.7305C256.168 20.9102 255.852 20.2305 255.219 19.6914C254.727 19.293 254.305 19.0117 253.953 18.8477C253.625 18.6602 253.297 18.4961 252.969 18.3555C252.664 18.1914 252.277 17.9688 251.809 17.6875C249.98 16.6328 249.066 15.3789 249.066 13.9258C249.066 13.082 249.301 12.3438 249.77 11.7109C250.238 11.0547 250.859 10.5508 251.633 10.1992C252.43 9.82422 253.273 9.63672 254.164 9.63672C254.422 9.63672 254.715 9.66016 255.043 9.70703C255.371 9.73047 255.734 9.76562 256.133 9.8125C256.531 9.88281 256.859 9.94141 257.117 9.98828C257.375 10.0352 257.586 10.0703 257.75 10.0938C258.008 11.1719 258.148 12.3672 258.172 13.6797C258.172 13.7969 258.02 13.8555 257.715 13.8555C257.387 13.8555 257.211 13.7734 257.188 13.6094C257.07 12.9531 256.73 12.332 256.168 11.7461C255.629 11.1602 255.008 10.8672 254.305 10.8672C252.617 10.8672 251.773 11.5586 251.773 12.9414C251.773 13.293 251.809 13.6094 251.879 13.8906C251.973 14.1484 252.172 14.3945 252.477 14.6289C253.203 15.1914 254.059 15.7539 255.043 16.3164C256.051 16.8789 256.883 17.4062 257.539 17.8984C258.523 18.6484 259.016 19.5273 259.016 20.5352C259.016 21.4492 258.77 22.2812 258.277 23.0312C257.785 23.7578 257.129 24.332 256.309 24.7539C255.488 25.1758 254.586 25.3867 253.602 25.3867Z" fill="black"/>
</svg>
